<svg xmlns="http://www.w3.org/2000/svg" width="64" height="64" viewBox="0 0 64 64" shape-rendering="crispEdges">
  <rect width="64" height="64" fill="#12151d"/>

  <!-- headphones -->
  <rect x="17" y="7" width="5" height="8" fill="#8f1118"/>
  <rect x="22" y="4" width="6" height="4" fill="#8f1118"/>
  <rect x="28" y="2" width="12" height="3" fill="#8f1118"/>
  <rect x="40" y="4" width="6" height="4" fill="#8f1118"/>
  <rect x="46" y="7" width="5" height="8" fill="#8f1118"/>
  <rect x="7" y="28" width="9" height="18" fill="#8f1118"/>
  <rect x="5" y="31" width="3" height="11" fill="#c51f2c"/>
  <rect x="51" y="28" width="9" height="18" fill="#8f1118"/>
  <rect x="59" y="31" width="3" height="11" fill="#c51f2c"/>
  <rect x="15" y="24" width="3" height="12" fill="#8f1118"/>
  <rect x="49" y="24" width="3" height="12" fill="#8f1118"/>

  <!-- hair -->
  <rect x="18" y="8" width="31" height="7" fill="#0f0f0f"/>
  <rect x="14" y="15" width="39" height="9" fill="#121212"/>
  <rect x="11" y="23" width="45" height="10" fill="#151515"/>
  <rect x="15" y="33" width="38" height="7" fill="#151515"/>
  <rect x="16" y="6" width="6" height="6" fill="#1d1d1d"/>
  <rect x="24" y="3" width="7" height="6" fill="#1d1d1d"/>
  <rect x="38" y="4" width="7" height="6" fill="#1d1d1d"/>
  <rect x="48" y="7" width="6" height="6" fill="#1d1d1d"/>

  <!-- face and ears -->
  <rect x="11" y="35" width="7" height="12" fill="#8c5534"/>
  <rect x="49" y="35" width="7" height="12" fill="#8c5534"/>
  <rect x="17" y="31" width="34" height="25" fill="#a96a43"/>
  <rect x="21" y="39" width="26" height="17" fill="#b6764b"/>

  <!-- glasses -->
  <rect x="20" y="39" width="12" height="3" fill="#171717"/>
  <rect x="36" y="39" width="12" height="3" fill="#171717"/>
  <rect x="19" y="42" width="3" height="8" fill="#171717"/>
  <rect x="31" y="42" width="3" height="8" fill="#171717"/>
  <rect x="35" y="42" width="3" height="8" fill="#171717"/>
  <rect x="47" y="42" width="3" height="8" fill="#171717"/>
  <rect x="20" y="50" width="12" height="3" fill="#171717"/>
  <rect x="36" y="50" width="12" height="3" fill="#171717"/>
  <rect x="14" y="42" width="6" height="3" fill="#171717"/>
  <rect x="48" y="42" width="6" height="3" fill="#171717"/>
  <rect x="34" y="44" width="2" height="2" fill="#171717"/>
  <rect x="22" y="42" width="8" height="6" fill="#d8efff" opacity="0.82"/>
  <rect x="38" y="42" width="8" height="6" fill="#d8efff" opacity="0.82"/>
  <rect x="27" y="43" width="3" height="3" fill="#171717"/>
  <rect x="38" y="43" width="3" height="3" fill="#171717"/>
  <rect x="23" y="42" width="3" height="2" fill="#ffffff" opacity="0.9"/>
  <rect x="42" y="42" width="3" height="2" fill="#ffffff" opacity="0.9"/>

  <!-- nose and moustache -->
  <rect x="32" y="47" width="4" height="7" fill="#8a5234"/>
  <rect x="27" y="54" width="5" height="3" fill="#25140d"/>
  <rect x="36" y="54" width="5" height="3" fill="#25140d"/>
  <rect x="32" y="55" width="4" height="2" fill="#25140d"/>
</svg>
