<svg xmlns="http://www.w3.org/2000/svg" width="64" height="64" viewBox="0 0 64 64" shape-rendering="crispEdges">
  <rect width="64" height="64" fill="none"/>
  <g transform="rotate(-35 32 32)">
    <rect x="10" y="14" width="10" height="8" fill="#2b1c12"/>
    <rect x="20" y="10" width="28" height="8" fill="#2b1c12"/>
    <rect x="48" y="14" width="8" height="8" fill="#2b1c12"/>
    <rect x="14" y="14" width="8" height="8" fill="#55f2ef"/>
    <rect x="22" y="10" width="10" height="8" fill="#8ffff8"/>
    <rect x="32" y="10" width="14" height="8" fill="#47d2d0"/>
    <rect x="46" y="14" width="8" height="8" fill="#21a6aa"/>
    <rect x="24" y="18" width="8" height="8" fill="#2b1c12"/>
    <rect x="32" y="26" width="8" height="8" fill="#2b1c12"/>
    <rect x="40" y="34" width="8" height="8" fill="#2b1c12"/>
    <rect x="48" y="42" width="8" height="14" fill="#2b1c12"/>
    <rect x="26" y="18" width="6" height="8" fill="#9b5d2d"/>
    <rect x="34" y="26" width="6" height="8" fill="#b87837"/>
    <rect x="42" y="34" width="6" height="8" fill="#8f4f26"/>
    <rect x="50" y="42" width="6" height="12" fill="#6b3b1f"/>
    <rect x="50" y="42" width="4" height="4" fill="#d0964d"/>
  </g>
</svg>
