<svg xmlns="http://www.w3.org/2000/svg" width="228" height="520" viewBox="-8 0 228 520" shape-rendering="crispEdges">
  <rect x="-8" width="228" height="520" fill="none"/>

  <!-- hair silhouette -->
  <rect x="58" y="14" width="104" height="22" fill="#0f0f0f"/>
  <rect x="46" y="36" width="128" height="26" fill="#121212"/>
  <rect x="38" y="58" width="144" height="28" fill="#151515"/>
  <rect x="48" y="86" width="124" height="20" fill="#151515"/>
  <rect x="52" y="8" width="18" height="18" fill="#1d1d1d"/>
  <rect x="78" y="0" width="22" height="18" fill="#1d1d1d"/>
  <rect x="116" y="2" width="22" height="18" fill="#1d1d1d"/>
  <rect x="150" y="12" width="18" height="18" fill="#1d1d1d"/>

  <!-- head and ears -->
  <rect x="42" y="86" width="20" height="38" fill="#8c5534"/>
  <rect x="158" y="86" width="20" height="38" fill="#8c5534"/>
  <rect x="56" y="62" width="108" height="96" fill="#a96a43"/>
  <rect x="68" y="88" width="84" height="66" fill="#b6764b"/>

  <!-- glasses -->
  <rect x="66" y="88" width="34" height="6" fill="#171717"/>
  <rect x="120" y="88" width="34" height="6" fill="#171717"/>
  <rect x="64" y="94" width="6" height="24" fill="#171717"/>
  <rect x="96" y="94" width="6" height="24" fill="#171717"/>
  <rect x="118" y="94" width="6" height="24" fill="#171717"/>
  <rect x="150" y="94" width="6" height="24" fill="#171717"/>
  <rect x="102" y="100" width="16" height="5" fill="#171717"/>
  <rect x="72" y="96" width="22" height="18" fill="#d8efff" opacity="0.76"/>
  <rect x="126" y="96" width="22" height="18" fill="#d8efff" opacity="0.76"/>
  <rect x="86" y="98" width="8" height="8" fill="#171717"/>
  <rect x="126" y="98" width="8" height="8" fill="#171717"/>
  <rect x="76" y="96" width="8" height="5" fill="#ffffff" opacity="0.9"/>
  <rect x="136" y="96" width="8" height="5" fill="#ffffff" opacity="0.9"/>

  <!-- face details -->
  <rect x="104" y="110" width="14" height="20" fill="#8a5234"/>
  <rect x="84" y="130" width="52" height="10" fill="#25140d"/>
  <rect x="92" y="140" width="36" height="10" fill="#25140d"/>
  <rect x="94" y="136" width="32" height="6" fill="#6d3f28"/>
  <rect x="96" y="156" width="28" height="18" fill="#a96a43"/>

  <!-- neck -->
  <rect x="92" y="158" width="36" height="30" fill="#a96a43"/>

  <!-- white long-sleeve henley shirt -->
  <rect x="48" y="176" width="124" height="152" fill="#f6f4ec"/>
  <rect x="42" y="166" width="42" height="118" fill="#f6f4ec"/>
  <rect x="136" y="166" width="42" height="118" fill="#f6f4ec"/>
  <rect x="50" y="166" width="28" height="18" fill="#ffffff"/>
  <rect x="142" y="166" width="28" height="18" fill="#ffffff"/>
  <rect x="82" y="166" width="56" height="22" fill="#f6f4ec"/>
  <rect x="88" y="164" width="44" height="10" fill="#ffffff"/>
  <rect x="92" y="174" width="36" height="8" fill="#d9d7cf"/>
  <rect x="98" y="182" width="24" height="10" fill="#f6f4ec"/>
  <rect x="104" y="186" width="12" height="64" fill="#e4e1d8"/>
  <rect x="108" y="190" width="4" height="56" fill="#f9f8f3"/>
  <rect x="106" y="198" width="8" height="6" fill="#bdb8ad"/>
  <rect x="106" y="216" width="8" height="6" fill="#bdb8ad"/>
  <rect x="106" y="234" width="8" height="6" fill="#bdb8ad"/>
  <rect x="54" y="276" width="30" height="8" fill="#dedbd2"/>
  <rect x="136" y="276" width="32" height="8" fill="#dedbd2"/>
  <rect x="62" y="222" width="12" height="88" fill="#eeece5" opacity="0.75"/>
  <rect x="146" y="222" width="12" height="88" fill="#eeece5" opacity="0.75"/>
  <rect x="64" y="318" width="92" height="18" fill="#111111" opacity="0.22"/>
  <rect x="84" y="280" width="52" height="8" fill="#e7e4db"/>
  <rect x="78" y="294" width="64" height="8" fill="#e7e4db"/>

  <!-- arms and hands -->
  <rect x="34" y="204" width="38" height="22" fill="#f6f4ec"/>
  <rect x="18" y="218" width="42" height="22" fill="#f6f4ec"/>
  <rect x="0" y="232" width="38" height="22" fill="#f6f4ec"/>
  <rect x="0" y="254" width="30" height="24" fill="#a96a43"/>
  <rect x="-8" y="250" width="18" height="10" fill="#b6764b"/>
  <rect x="-8" y="268" width="18" height="10" fill="#b6764b"/>
  <rect x="18" y="276" width="10" height="10" fill="#8a5234"/>
  <rect x="154" y="218" width="18" height="66" fill="#f6f4ec"/>
  <rect x="154" y="278" width="18" height="32" fill="#a96a43"/>
  <rect x="148" y="294" width="12" height="12" fill="#b6764b"/>
  <rect x="164" y="308" width="8" height="10" fill="#8a5234"/>

  <!-- shorts -->
  <rect x="58" y="328" width="104" height="96" fill="#222426"/>
  <rect x="58" y="328" width="104" height="18" fill="#17191b"/>
  <rect x="106" y="346" width="8" height="78" fill="#333538"/>
  <rect x="62" y="388" width="44" height="8" fill="#303235"/>
  <rect x="114" y="388" width="44" height="8" fill="#303235"/>

  <!-- legs -->
  <rect x="68" y="424" width="34" height="54" fill="#8a5234"/>
  <rect x="118" y="424" width="34" height="54" fill="#8a5234"/>
  <rect x="70" y="424" width="8" height="54" fill="#77462c"/>
  <rect x="120" y="424" width="8" height="54" fill="#77462c"/>

  <!-- socks -->
  <rect x="64" y="478" width="42" height="22" fill="#f4f4ef"/>
  <rect x="114" y="478" width="42" height="22" fill="#f4f4ef"/>
  <rect x="64" y="488" width="42" height="5" fill="#d7d7d2"/>
  <rect x="114" y="488" width="42" height="5" fill="#d7d7d2"/>

  <!-- shoes -->
  <rect x="54" y="496" width="58" height="18" fill="#ffffff"/>
  <rect x="108" y="496" width="58" height="18" fill="#ffffff"/>
  <rect x="50" y="508" width="62" height="10" fill="#e8e8e5"/>
  <rect x="108" y="508" width="62" height="10" fill="#e8e8e5"/>
  <rect x="58" y="510" width="12" height="4" fill="#1d1d1d"/>
  <rect x="72" y="510" width="12" height="4" fill="#df1f24"/>
  <rect x="86" y="510" width="12" height="4" fill="#1d1d1d"/>
  <rect x="122" y="510" width="12" height="4" fill="#1d1d1d"/>
  <rect x="136" y="510" width="12" height="4" fill="#df1f24"/>
  <rect x="150" y="510" width="12" height="4" fill="#1d1d1d"/>
</svg>
